<?xml version="1.0" encoding="UTF-8"?>
<svg id="b" data-name="Layer 2" xmlns="http://www.w3.org/2000/svg" width="236.613" height="236.612" viewBox="0 0 236.613 236.612">
  <g id="c" data-name="Layer 7">
    <g>
      <path d="M234.775,75.905l-.024-.249C231.024,40.068,196.54,5.584,160.955,1.861l-.249-.024c-28.135-2.449-56.666-2.449-84.801,0l-.248.024C40.07,5.583,5.586,40.066,1.862,75.657l-.024.248c-2.451,28.135-2.451,56.665,0,84.801l.024.246c3.719,35.587,38.203,70.072,73.795,73.798l.249.024c14.068,1.225,28.234,1.838,42.401,1.838s28.333-.613,42.4-1.838l.248-.024c35.59-3.723,70.074-38.207,73.796-73.797l.024-.247c2.452-28.136,2.452-56.667,0-84.801ZM206.138,158.078c-2.371,21.945-26.115,45.691-48.061,48.06-26.391,2.292-53.151,2.292-79.543,0-21.947-2.373-45.691-26.117-48.06-48.06-2.291-26.392-2.291-53.151,0-79.542,2.369-21.948,26.115-45.695,48.061-48.062,26.392-2.29,53.153-2.29,79.544,0,21.942,2.371,45.687,26.115,48.06,48.061,2.292,26.393,2.292,53.15,0,79.544Z" stroke-width="0"/>
      <path d="M167.943,68.669c-5.615-5.615-14.719-5.615-20.334,0l-29.303,29.303-29.303-29.303c-5.615-5.615-14.719-5.615-20.334,0s-5.615,14.719,0,20.334l29.303,29.303-29.303,29.303c-5.615,5.615-5.615,14.719,0,20.334,2.808,2.808,6.487,4.211,10.167,4.211s7.359-1.403,10.167-4.211l29.303-29.303,29.303,29.303c2.808,2.808,6.487,4.211,10.167,4.211s7.359-1.403,10.167-4.211c5.615-5.615,5.615-14.719,0-20.334l-29.303-29.303,29.303-29.303c5.615-5.615,5.615-14.719,0-20.334Z" stroke-width="0"/>
    </g>
  </g>
</svg>