<?xml version="1.0" encoding="UTF-8"?>
<svg id="b" data-name="Layer 2" xmlns="http://www.w3.org/2000/svg" width="227.589" height="227.59" viewBox="0 0 227.589 227.59">
  <g id="c" data-name="Layer 7">
    <g>
      <path d="M197.673,30.355l-.439-.44C177.38,10.903,146.968,0,113.795,0S50.209,10.903,30.355,29.915l-.44.44C10.903,50.209,0,80.622,0,113.796,0,146.969,10.904,177.381,29.916,197.233l.439.439c19.853,19.014,50.265,29.918,83.439,29.917,33.173,0,63.585-10.904,83.439-29.916l.44-.44c19.012-19.853,29.916-50.266,29.916-83.438,0-33.175-10.904-63.587-29.917-83.439ZM177.119,177.119c-14.362,13.602-38.004,21.715-63.325,21.715s-48.964-8.112-63.324-21.715c-13.601-14.361-21.713-38.003-21.714-63.323,0-25.323,8.112-48.965,21.715-63.327,14.361-13.601,38.003-21.713,63.324-21.713s48.963,8.111,63.324,21.714c13.601,14.361,21.714,38.003,21.714,63.324s-8.113,48.964-21.714,63.325Z" stroke-width="0"/>
      <path d="M112.758,181.035c-11.5,0-18.645-6.284-18.645-16.4,0-9.942,7.144-16.118,18.645-16.118,11.87,0,18.956,6.025,18.956,16.118,0,12.093-9.792,16.4-18.956,16.4ZM106.382,137.576c-2.26,0-4.41-.817-6.055-2.302-1.771-1.599-2.787-3.857-2.787-6.197,0-14.271,6.992-24.21,22.006-31.309,13.64-6.255,14.746-8.963,14.746-11.621,0-2.121,0-8.577-18.106-8.577-19.197,0-19.197,9.111-19.197,12.105,0,.321-.008.698-.018,1.113-.007.294-.014.611-.018.942-.055,4.629-4.02,8.395-8.839,8.396,0,0-.205-.002-.307-.005-2.286-.075-4.589-.115-6.66-.115-2.119,0-4.319.041-6.537.121-.112.004-.224.006-.335.006-4.715,0-8.596-3.548-8.835-8.077-.067-1.258-.134-2.776-.134-4.498,0-23.17,19.253-37.003,51.502-37.003,43.05,0,49.478,21.238,49.478,33.898,0,18.536-13.771,26.889-27.268,32.605-10.885,5.021-10.885,9.876-10.885,11.706v.302c.001,2.338-1.01,4.595-2.774,6.194-1.644,1.49-3.796,2.312-6.059,2.312h-.132c-1.883-.028-3.965-.028-6.099-.028h-.11c-2.278,0-4.497,0-6.435.03h-.143Z" stroke-width="0"/>
    </g>
  </g>
</svg>