<?xml version="1.0" encoding="UTF-8"?>
<svg id="b" data-name="Layer 2" xmlns="http://www.w3.org/2000/svg" width="227.589" height="227.59" viewBox="0 0 227.589 227.59">
  <g id="c" data-name="Layer 7">
    <g>
      <g>
        <path d="M131.566,50.792c-4.615-3.051-10.541-4.578-17.771-4.578-7.08,0-12.965,1.497-17.655,4.49-4.696,2.993-7.04,7.131-7.04,12.413,0,1.175.076,2.113.231,2.817l12.001,54.758c.613,3.054,2.037,5.401,4.269,7.043,2.229,1.645,4.963,2.465,8.194,2.465s5.96-.82,8.192-2.465c2.229-1.642,3.577-3.989,4.039-7.043l12.233-54.582c.15-.704.229-1.642.229-2.817,0-5.282-2.307-9.447-6.923-12.501Z" stroke-width="0"/>
        <path d="M129.604,147.6c-4.233-3.284-9.501-4.929-15.809-4.929-6.463,0-11.81,1.645-16.04,4.929-4.234,3.288-6.347,7.337-6.347,12.149s2.113,8.864,6.347,12.149c4.23,3.287,9.577,4.929,16.04,4.929,6.307,0,11.576-1.642,15.809-4.929,4.23-3.285,6.347-7.335,6.347-12.149s-2.117-8.861-6.347-12.149Z" stroke-width="0"/>
      </g>
      <path d="M197.673,30.355l-.439-.44C177.38,10.903,146.968,0,113.795,0S50.209,10.903,30.355,29.915l-.44.44C10.903,50.209,0,80.622,0,113.796,0,146.969,10.904,177.381,29.916,197.233l.439.439c19.853,19.014,50.265,29.918,83.439,29.917,33.173,0,63.585-10.904,83.439-29.916l.44-.44c19.012-19.853,29.916-50.266,29.916-83.438,0-33.175-10.904-63.587-29.917-83.439ZM177.119,177.119c-14.362,13.602-38.004,21.715-63.325,21.715s-48.964-8.112-63.324-21.715c-13.601-14.361-21.713-38.003-21.714-63.323,0-25.323,8.112-48.965,21.715-63.327,14.361-13.601,38.003-21.713,63.324-21.713s48.963,8.111,63.324,21.714c13.601,14.361,21.714,38.003,21.714,63.324s-8.113,48.964-21.714,63.325Z" stroke-width="0"/>
    </g>
  </g>
</svg>