<?xml version="1.0" encoding="UTF-8"?>
<svg id="g" data-name="Layer 7" xmlns="http://www.w3.org/2000/svg" width="256" height="256" viewBox="0 0 256 256">
  <g>
    <path d="M159.902,214.62l-53.012-37.129c-.876-.614-1.92-.943-2.99-.943h-28.477c-2.879,0-5.213-2.334-5.213-5.213v-86.67c0-2.879,2.334-5.213,5.213-5.213h28.477c1.07,0,2.114-.329,2.99-.943l53.012-37.129c3.455-2.42,8.203.052,8.203,4.27v164.701c0,4.218-4.748,6.689-8.203,4.27Z" fill="#fff3d6" stroke-width="0"/>
    <path d="M162.876,231.572c-4.357,0-8.559-1.33-12.152-3.847l-50.226-35.178h-25.075c-11.697,0-21.212-9.516-21.212-21.212v-86.671c0-11.696,9.516-21.212,21.212-21.212h25.075l50.226-35.178c3.593-2.517,7.795-3.847,12.152-3.847,11.706,0,21.23,9.52,21.23,21.222v164.7c0,5.875-2.336,11.331-6.577,15.361-3.976,3.779-9.18,5.86-14.652,5.86,0,0,0,0,0,0Z" fill="#42210b" stroke-width="0"/>
    <path d="M159.902,41.38l-53.012,37.129c-.876.614-1.92.943-2.99.943h-28.477c-2.879,0-5.212,2.334-5.212,5.213v86.67c0,2.879,2.333,5.213,5.212,5.213h28.477c1.07,0,2.114.329,2.99.943l53.012,37.129c3.455,2.419,8.203-.052,8.203-4.27V45.65c0-4.218-4.748-6.689-8.203-4.27Z" fill="#fff3d6" stroke-width="0"/>
  </g>
  <g>
    <line x1="34.002" y1="56.527" x2="221.998" y2="193.146" fill="none" stroke="#42210b" stroke-linecap="round" stroke-linejoin="round" stroke-width="17"/>
    <path d="M221.991,217.647c-5.203,0-10.181-1.619-14.396-4.682L19.599,76.347c-10.928-7.942-13.358-23.294-5.417-34.222,4.594-6.323,12.005-10.099,19.826-10.099,5.204,0,10.183,1.619,14.397,4.683l187.996,136.617c10.928,7.942,13.358,23.294,5.417,34.222-4.596,6.324-12.008,10.099-19.826,10.099Z" fill="#42210b" stroke-width="0"/>
    <path d="M226.995,186.27L38.999,49.652c-3.798-2.761-9.114-1.919-11.873,1.879-2.76,3.798-1.918,9.113,1.879,11.873l187.997,136.618c1.509,1.097,3.257,1.625,4.99,1.625,2.628,0,5.22-1.216,6.883-3.504,2.76-3.798,1.918-9.113-1.879-11.873Z" fill="#fff3d6" stroke-width="0"/>
  </g>
</svg>