<?xml version="1.0" encoding="UTF-8"?>
<svg id="f" data-name="Layer 5" xmlns="http://www.w3.org/2000/svg" width="256" height="256" viewBox="0 0 256 256">
  <g>
    <path d="M190.942,79.932c-5.767-20.681-24.658-35.992-47.128-35.992-19.686,0-36.589,11.533-44.344,28.237-.994,0-1.989-.199-2.983-.199-16.107,0-29.231,12.727-30.027,28.635-.994,0-1.989-.199-2.983-.199-15.908,0-29.032,12.925-29.032,29.032,0,15.908,12.925,29.032,29.032,29.032h120.504c21.874,0,39.572-17.698,39.572-39.572,0-19.687-14.118-35.793-32.612-38.975Z" stroke-width="0"/>
    <path d="M74.34,209.633c2.798-.802,5.089-2.67,6.419-5.071l9.633-17.095c1.33-2.4,1.701-5.333.899-8.131-.802-2.798-2.67-5.089-5.071-6.419-5.28-2.927-11.809-1.055-14.55,4.172l-9.579,17.281c-1.33,2.4-1.701,5.333-.899,8.131.802,2.798,2.67,5.089,5.071,6.419,2.533,1.09,5.279,1.514,8.077.712Z" stroke-width="0"/>
    <path d="M122.851,209.633c2.798-.802,5.089-2.67,6.419-5.071l9.633-17.095c1.33-2.4,1.701-5.333.899-8.131-.802-2.798-2.67-5.089-5.071-6.419-5.28-2.927-11.809-1.055-14.55,4.172l-9.579,17.281c-1.33,2.4-1.701,5.333-.899,8.131s2.67,5.089,5.071,6.419c2.533,1.09,5.279,1.514,8.077.712Z" stroke-width="0"/>
    <path d="M171.361,209.633c2.798-.802,5.089-2.67,6.419-5.071l9.633-17.095c1.33-2.4,1.701-5.333.899-8.131-.802-2.798-2.67-5.089-5.071-6.419-5.28-2.927-11.809-1.055-14.55,4.172l-9.579,17.281c-1.33,2.4-1.701,5.333-.899,8.131s2.67,5.089,5.071,6.419c2.533,1.09,5.279,1.514,8.077.712Z" stroke-width="0"/>
  </g>
  <g>
    <path d="M63.478,174.478c-24.831,0-45.032-20.201-45.032-45.032,0-21.398,15.002-39.358,35.041-43.915,5.922-15.43,19.838-26.774,36.582-29.109,11.931-17.572,32.068-28.482,53.745-28.482,25.794,0,48.998,15.526,59.316,38.729,21.583,7.808,36.423,28.439,36.423,52.239,0,30.643-24.929,55.571-55.572,55.571H63.478Z" fill="#42210b" stroke-width="0"/>
    <path d="M71.379,226.049c-3.844,0-7.694-.818-11.443-2.432l-.732-.315-.697-.387c-6.124-3.394-10.751-9.226-12.694-16.001-1.943-6.777-1.11-14.176,2.284-20.299l9.51-17.155c4.6-8.595,13.514-13.925,23.318-13.925,4.539,0,9.053,1.173,13.053,3.391,6.123,3.394,10.75,9.226,12.692,16.001,1.942,6.776,1.109,14.175-2.285,20.298l-9.667,17.155c-3.399,6.094-9.215,10.696-15.967,12.634-2.399.688-4.878,1.035-7.372,1.035h0Z" fill="#42210b" stroke-width="0"/>
    <path d="M119.889,226.049c-3.845,0-7.695-.818-11.444-2.433l-.731-.314-.696-.387c-6.124-3.394-10.751-9.226-12.694-16.001-1.942-6.776-1.11-14.173,2.283-20.297l9.511-17.157c4.6-8.595,13.514-13.925,23.318-13.925,4.54,0,9.053,1.173,13.054,3.391,6.122,3.393,10.749,9.225,12.692,16.001,1.943,6.774,1.11,14.173-2.285,20.298l-9.666,17.155c-3.398,6.093-9.214,10.696-15.967,12.634-2.4.688-4.88,1.035-7.373,1.035h0Z" fill="#42210b" stroke-width="0"/>
    <path d="M168.399,226.049c-3.844,0-7.694-.818-11.443-2.433l-.73-.314-.696-.386c-6.125-3.394-10.752-9.227-12.696-16.002-1.943-6.777-1.11-14.176,2.284-20.299l9.51-17.155c4.6-8.596,13.513-13.925,23.318-13.925,4.54,0,9.053,1.173,13.054,3.391,6.121,3.393,10.748,9.225,12.691,15.999,1.942,6.779,1.109,14.176-2.283,20.298l-9.668,17.157c-3.399,6.094-9.215,10.696-15.966,12.634-2.401.688-4.88,1.035-7.374,1.035h0Z" fill="#42210b" stroke-width="0"/>
  </g>
  <g>
    <path d="M190.942,79.932c-5.767-20.681-24.658-35.992-47.128-35.992-19.686,0-36.589,11.533-44.344,28.237-.994,0-1.989-.199-2.983-.199-16.107,0-29.231,12.727-30.027,28.635-.994,0-1.989-.199-2.983-.199-15.908,0-29.032,12.925-29.032,29.032,0,15.908,12.925,29.032,29.032,29.032h120.504c21.874,0,39.572-17.698,39.572-39.572,0-19.687-14.118-35.793-32.612-38.975Z" fill="#fff3d6" stroke-width="0"/>
    <path d="M86.22,172.918c-5.28-2.927-11.809-1.055-14.55,4.172l-9.579,17.281c-1.33,2.4-1.701,5.333-.898,8.131.802,2.798,2.67,5.088,5.07,6.419,2.533,1.09,5.279,1.514,8.077.712,2.798-.802,5.089-2.67,6.419-5.071l9.633-17.095c1.33-2.4,1.701-5.333.898-8.131-.802-2.798-2.67-5.089-5.07-6.419Z" fill="#fff3d6" stroke-width="0"/>
    <path d="M134.73,172.918c-5.281-2.927-11.809-1.055-14.55,4.172l-9.579,17.281c-1.33,2.4-1.701,5.333-.898,8.131.802,2.798,2.67,5.088,5.071,6.419,2.533,1.09,5.279,1.514,8.077.712s5.089-2.67,6.419-5.071l9.633-17.095c1.331-2.4,1.701-5.333.899-8.131-.802-2.798-2.67-5.089-5.071-6.419Z" fill="#fff3d6" stroke-width="0"/>
    <path d="M183.241,172.918c-5.28-2.927-11.809-1.055-14.55,4.172l-9.579,17.281c-1.33,2.4-1.701,5.333-.899,8.131.802,2.798,2.67,5.088,5.071,6.419,2.533,1.09,5.279,1.514,8.077.712,2.798-.802,5.089-2.67,6.419-5.071l9.633-17.095c1.33-2.4,1.701-5.333.898-8.131-.802-2.798-2.67-5.089-5.071-6.419Z" fill="#fff3d6" stroke-width="0"/>
  </g>
</svg>