<?xml version="1.0" encoding="UTF-8"?>
<svg id="g" data-name="Layer 7" xmlns="http://www.w3.org/2000/svg" width="256" height="256" viewBox="0 0 256 256">
  <g>
    <path d="M126.665,214.62l-53.012-37.129c-.876-.614-1.92-.943-2.99-.943h-28.477c-2.879,0-5.213-2.334-5.213-5.213v-86.67c0-2.879,2.334-5.213,5.213-5.213h28.477c1.07,0,2.114-.329,2.99-.943l53.012-37.129c3.455-2.42,8.203.052,8.203,4.27v164.701c0,4.218-4.748,6.689-8.203,4.27Z" fill="#fff3d6" stroke-width="0"/>
    <path d="M196.778,74.286c13.747,13.747,22.249,32.737,22.249,53.714s-8.502,39.968-22.249,53.714" fill="none" stroke="#42210b" stroke-linecap="round" stroke-linejoin="round" stroke-width="17"/>
  </g>
  <g>
    <path d="M129.639,231.572c-4.357,0-8.559-1.33-12.152-3.847l-50.226-35.178h-25.075c-11.697,0-21.212-9.516-21.212-21.212v-86.671c0-11.696,9.516-21.212,21.212-21.212h25.075l50.226-35.178c3.593-2.517,7.795-3.847,12.152-3.847,11.706,0,21.23,9.52,21.23,21.222v164.7c0,5.875-2.336,11.331-6.577,15.361-3.976,3.779-9.18,5.86-14.652,5.86,0,0,0,0,0,0Z" fill="#42210b" stroke-width="0"/>
    <path d="M196.778,206.214c-6.543,0-12.695-2.548-17.322-7.174-9.553-9.553-9.554-25.096-.004-34.649,9.722-9.722,15.075-22.645,15.075-36.391s-5.353-26.67-15.074-36.391c-9.552-9.555-9.551-25.098,0-34.648,4.627-4.628,10.78-7.176,17.324-7.176s12.695,2.548,17.323,7.174c18.977,18.979,29.426,44.207,29.426,71.041s-10.45,52.062-29.424,71.038c-4.632,4.629-10.783,7.176-17.325,7.176Z" fill="#42210b" stroke-width="0"/>
  </g>
  <g>
    <path d="M126.665,41.38l-53.012,37.129c-.876.614-1.92.943-2.99.943h-28.477c-2.879,0-5.212,2.334-5.212,5.213v86.67c0,2.879,2.333,5.213,5.212,5.213h28.477c1.07,0,2.114.329,2.99.943l53.012,37.129c3.455,2.419,8.203-.052,8.203-4.27V45.65c0-4.218-4.748-6.689-8.203-4.27Z" fill="#fff3d6" stroke-width="0"/>
    <path d="M202.788,68.275c-3.32-3.319-8.702-3.319-12.021,0s-3.32,8.701,0,12.021c12.742,12.742,19.76,29.684,19.76,47.704s-7.018,34.961-19.76,47.703c-3.319,3.32-3.319,8.702,0,12.021,1.66,1.659,3.835,2.489,6.01,2.489s4.351-.83,6.011-2.489c15.953-15.954,24.738-37.164,24.738-59.725s-8.786-43.771-24.738-59.726Z" fill="#fff3d6" stroke-width="0"/>
  </g>
</svg>