<?xml version="1.0" encoding="UTF-8"?>
<svg id="f" data-name="Layer 5" xmlns="http://www.w3.org/2000/svg" width="256" height="256" viewBox="0 0 256 256">
  <g>
    <path d="M128,93.196c-19.239,0-34.804,15.566-34.804,34.804s15.566,34.804,34.804,34.804,34.804-15.566,34.804-34.804-15.566-34.804-34.804-34.804Z" stroke-width="0"/>
    <path d="M128,74.156c6.347,0,11.26-5.118,11.26-11.26v-20.883c0-6.142-5.118-11.26-11.26-11.26s-11.26,5.118-11.26,11.26v20.678c0,6.347,5.118,11.465,11.26,11.465Z" stroke-width="0"/>
    <path d="M73.951,89.92c2.047,2.047,4.914,3.276,7.985,3.276s5.937-1.228,7.985-3.276c2.047-2.047,3.276-4.914,3.276-7.985s-1.228-5.937-3.276-7.985l-14.741-14.741h0c-4.504-4.504-11.67-4.299-15.969,0-2.047,2.047-3.276,4.914-3.276,7.985s1.228,5.937,3.276,7.985l14.741,14.741Z" stroke-width="0"/>
    <path d="M74.156,128c0-6.142-5.118-11.26-11.26-11.26h-20.883c-6.142,0-11.26,5.118-11.26,11.26s5.118,11.26,11.26,11.26h20.678c6.347,0,11.465-5.118,11.465-11.26Z" stroke-width="0"/>
    <path d="M73.951,166.08l-14.741,14.536c-2.047,2.047-3.276,4.914-3.276,7.985s1.228,5.937,3.276,7.985c2.047,2.252,4.914,3.276,7.985,3.276s5.937-1.228,7.985-3.276l14.741-14.741c2.047-2.047,3.276-4.914,3.276-7.985s-1.228-5.937-3.276-7.985c-4.504-4.095-11.67-4.095-15.969.205Z" stroke-width="0"/>
    <path d="M128,181.844c-6.347,0-11.26,5.118-11.26,11.26v20.883c0,6.142,5.118,11.26,11.26,11.26s11.26-5.118,11.26-11.26v-20.883c0-6.142-4.914-11.26-11.26-11.26Z" stroke-width="0"/>
    <path d="M182.049,166.08c-4.504-4.299-11.67-4.299-15.969,0-2.047,2.047-3.276,4.914-3.276,7.985s1.228,5.937,3.276,7.985l14.741,14.741c2.047,2.047,4.914,3.276,7.985,3.276s5.937-1.228,7.985-3.276,3.276-4.914,3.276-7.985-1.228-5.937-3.276-7.985l-14.741-14.741Z" stroke-width="0"/>
    <path d="M213.987,116.74h-20.883c-6.347,0-11.26,5.118-11.26,11.26s5.118,11.26,11.26,11.26h20.883c6.347,0,11.26-5.118,11.26-11.26s-5.118-11.26-11.26-11.26Z" stroke-width="0"/>
    <path d="M174.065,93.196c3.071,0,5.937-1.228,7.985-3.276l14.741-14.536c2.047-2.047,3.276-4.914,3.276-7.985s-1.228-5.937-3.276-7.985c-4.504-4.504-11.67-4.504-15.969,0l-14.741,14.741c-2.047,2.047-3.276,4.914-3.276,7.985s1.228,5.937,3.276,7.985c2.252,1.843,4.914,3.071,7.985,3.071Z" stroke-width="0"/>
  </g>
  <g>
    <path d="M128,178.804c-28.013,0-50.804-22.79-50.804-50.804s22.791-50.805,50.804-50.805,50.805,22.791,50.805,50.805-22.791,50.804-50.805,50.804Z" fill="#42210b" stroke-width="0"/>
    <path d="M128,90.156c-15.031,0-27.26-12.32-27.26-27.465v-20.679c0-15.031,12.229-27.26,27.26-27.26s27.261,12.229,27.261,27.26v20.883c0,15.031-12.229,27.261-27.261,27.261Z" fill="#42210b" stroke-width="0"/>
    <path d="M81.935,109.196c-7.203,0-14.237-2.901-19.297-7.96l-14.742-14.743c-5.06-5.06-7.962-12.094-7.962-19.298s2.903-14.241,7.965-19.301c5.147-5.148,12.01-7.985,19.319-7.985s14.125,2.837,19.275,7.989l14.739,14.739c5.061,5.062,7.962,12.095,7.962,19.298s-2.902,14.237-7.961,19.298c-5.062,5.062-12.096,7.963-19.3,7.963Z" fill="#42210b" stroke-width="0"/>
    <path d="M42.013,155.26c-15.031,0-27.26-12.229-27.26-27.26s12.229-27.261,27.26-27.261h20.882c15.032,0,27.261,12.229,27.261,27.261s-12.321,27.26-27.465,27.26h-20.678Z" fill="#42210b" stroke-width="0"/>
    <path d="M67.195,215.861c-7.658,0-14.589-2.92-19.563-8.231-4.896-5.038-7.697-11.951-7.697-19.029,0-7.207,2.903-14.241,7.965-19.301l14.787-14.583c5.113-5.086,11.956-7.887,19.277-7.887,6.958,0,13.606,2.56,18.719,7.207l.281.255.269.269c5.061,5.06,7.963,12.095,7.963,19.3s-2.903,14.24-7.963,19.3l-14.74,14.738c-5.059,5.061-12.093,7.963-19.298,7.963Z" fill="#42210b" stroke-width="0"/>
    <path d="M128,241.248c-15.031,0-27.26-12.229-27.26-27.261v-20.883c0-15.031,12.229-27.26,27.26-27.26s27.261,12.229,27.261,27.26v20.883c0,15.031-12.229,27.261-27.261,27.261Z" fill="#42210b" stroke-width="0"/>
    <path d="M188.805,216.065c-7.205,0-14.238-2.902-19.298-7.962l-14.741-14.739c-5.061-5.063-7.962-12.097-7.962-19.299s2.901-14.236,7.959-19.296c5.105-5.104,11.932-7.914,19.225-7.914,7.153,0,13.939,2.718,19.108,7.65l.267.261,14.741,14.741c5.059,5.058,7.961,12.092,7.961,19.298s-2.902,14.24-7.963,19.3c-5.06,5.059-12.094,7.96-19.297,7.96Z" fill="#42210b" stroke-width="0"/>
    <path d="M193.105,155.26c-15.031,0-27.26-12.229-27.26-27.26s12.229-27.261,27.26-27.261h20.882c15.031,0,27.26,12.229,27.26,27.261s-12.229,27.26-27.26,27.26h-20.882Z" fill="#42210b" stroke-width="0"/>
    <path d="M174.065,109.196c-6.505,0-12.77-2.312-18.118-6.688l-.617-.505-.563-.564c-5.06-5.06-7.962-12.094-7.962-19.298s2.902-14.238,7.962-19.298l14.64-14.64c5.042-5.192,12.071-8.166,19.323-8.166,7.293,0,14.174,2.864,19.375,8.064,5.06,5.062,7.961,12.095,7.961,19.298s-2.901,14.237-7.96,19.298l-14.793,14.588c-5.056,5.028-12.067,7.911-19.247,7.911Z" fill="#42210b" stroke-width="0"/>
  </g>
  <g>
    <circle cx="128" cy="128" r="34.804" transform="translate(-53.019 128) rotate(-45)" fill="#fff3d6" stroke-width="0"/>
    <path d="M128,74.156c6.347,0,11.26-5.118,11.26-11.26v-20.883c0-6.142-5.118-11.26-11.26-11.26s-11.26,5.118-11.26,11.26v20.678c0,6.347,5.118,11.465,11.26,11.465Z" fill="#fff3d6" stroke-width="0"/>
    <path d="M73.951,89.92c2.047,2.047,4.913,3.276,7.984,3.276s5.937-1.228,7.984-3.276c2.047-2.047,3.276-4.914,3.276-7.985s-1.228-5.937-3.276-7.984l-14.741-14.741c-4.504-4.504-11.67-4.299-15.969,0-2.047,2.047-3.276,4.914-3.276,7.985s1.228,5.937,3.276,7.984l14.741,14.741Z" fill="#fff3d6" stroke-width="0"/>
    <path d="M74.156,128c0-6.142-5.118-11.26-11.26-11.26h-20.883c-6.142,0-11.26,5.118-11.26,11.26s5.118,11.26,11.26,11.26h20.678c6.347,0,11.465-5.118,11.465-11.26Z" fill="#fff3d6" stroke-width="0"/>
    <path d="M73.951,166.08l-14.741,14.536c-2.047,2.047-3.276,4.914-3.276,7.985s1.228,5.937,3.276,7.985c2.047,2.252,4.913,3.276,7.984,3.276s5.937-1.228,7.985-3.276l14.741-14.741c2.047-2.047,3.276-4.914,3.276-7.984s-1.228-5.938-3.276-7.985c-4.504-4.095-11.67-4.095-15.969.205Z" fill="#fff3d6" stroke-width="0"/>
    <path d="M128,181.844c-6.347,0-11.26,5.118-11.26,11.26v20.883c0,6.142,5.118,11.26,11.26,11.26s11.26-5.118,11.26-11.26v-20.883c0-6.142-4.914-11.26-11.26-11.26Z" fill="#fff3d6" stroke-width="0"/>
    <path d="M182.049,166.08c-4.504-4.299-11.67-4.299-15.969,0-2.047,2.047-3.276,4.914-3.276,7.985s1.228,5.937,3.276,7.984l14.741,14.741c2.047,2.047,4.913,3.276,7.984,3.276s5.937-1.229,7.985-3.276,3.276-4.914,3.276-7.984-1.228-5.937-3.276-7.985l-14.741-14.741Z" fill="#fff3d6" stroke-width="0"/>
    <path d="M213.987,116.74h-20.883c-6.347,0-11.26,5.118-11.26,11.26s5.118,11.26,11.26,11.26h20.883c6.347,0,11.26-5.118,11.26-11.26s-5.118-11.26-11.26-11.26Z" fill="#fff3d6" stroke-width="0"/>
    <path d="M174.065,93.196c3.071,0,5.937-1.228,7.984-3.276l14.741-14.536c2.047-2.047,3.276-4.914,3.276-7.985s-1.228-5.937-3.276-7.984c-4.504-4.504-11.67-4.504-15.969,0l-14.741,14.74c-2.047,2.047-3.276,4.914-3.276,7.985s1.228,5.937,3.276,7.984c2.252,1.843,4.914,3.071,7.984,3.071Z" fill="#fff3d6" stroke-width="0"/>
  </g>
</svg>