<?xml version="1.0" encoding="UTF-8"?>
<svg id="f" data-name="Layer 5" xmlns="http://www.w3.org/2000/svg" width="256" height="256" viewBox="0 0 256 256">
  <g>
    <path d="M123.501,232.824c-21.438,0-35.841-13.755-35.841-34.227s14.068-33.765,35.841-33.765c22.053,0,36.303,13.253,36.303,33.765,0,20.792-14.25,34.227-36.303,34.227Z" fill="#42210b" stroke-width="0"/>
    <path d="M114.054,180.272c-11.755,0-21.319-9.56-21.319-21.309,0-25.879,12.02-44.706,36.746-57.608l.177-.091c8.368-4.234,13.694-7.542,16.281-10.112,1.244-1.235,1.244-1.499,1.244-2.374,0-2.513-.578-2.933-1.189-3.377-1.044-.758-5.386-3.232-17.417-3.232-20.222,0-20.222,7.748-20.222,12.377,0,.563-.013,1.224-.028,1.951-.01.461-.021.958-.026,1.477-.125,11.622-9.688,21.073-21.315,21.073-.256,0-.514-.005-.772-.015-3.267-.118-6.566-.181-9.547-.181-3.006,0-6.146.063-9.333.189-.282.012-.564.017-.847.017-11.399,0-20.755-8.919-21.301-20.306-.103-2.135-.207-4.713-.207-7.667,0-20.625,7.857-37.881,22.723-49.902,14.776-11.948,35.567-18.007,61.798-18.007,73.579,0,81.523,43.941,81.523,62.834,0,34.386-23.851,50.046-44.74,59.83-11.786,6.033-11.785,10.81-11.785,12.614v.5c.003,5.688-2.212,11.041-6.237,15.068-4.023,4.026-9.375,6.244-15.066,6.244,0,0-.339-.003-.339-.003-2.695-.042-5.705-.042-8.893-.042-3.459,0-6.728,0-9.546.048l-.363.003Z" fill="#42210b" stroke-width="0"/>
  </g>
  <g>
    <path d="M123.501,180.832c-12.458,0-19.841,6-19.841,17.765s7.152,18.227,19.841,18.227c13.151,0,20.303-6.46,20.303-18.227s-7.383-17.765-20.303-17.765Z" fill="#fff3d6" stroke-width="0"/>
    <path d="M129.499,39.176c-46.604,0-68.521,21.225-68.521,51.91,0,2.414.078,4.593.188,6.901.14,2.925,2.609,5.184,5.535,5.067,2.967-.118,6.34-.202,9.965-.202,3.514,0,7.027.079,10.123.191,2.982.107,5.48-2.253,5.512-5.237.013-1.255.053-2.396.053-3.259,0-17.303,11.305-28.377,36.222-28.377,25.378,0,34.607,9.229,34.607,22.609,0,10.613-7.152,17.073-26.302,26.763-21.226,11.075-28.147,25.609-28.147,43.375v.048c0,2.972,2.441,5.358,5.412,5.308,2.953-.05,6.342-.05,9.815-.05,3.2,0,6.323,0,9.146.044,2.966.047,5.391-2.345,5.389-5.312v-.5c0-8.999,4.383-18.688,20.764-26.994,24.225-11.305,35.761-23.995,35.761-45.451,0-28.608-20.303-46.834-65.523-46.834Z" fill="#fff3d6" stroke-width="0"/>
  </g>
</svg>