<?xml version="1.0" encoding="UTF-8"?>
<svg id="e" data-name="Top Layer BG" xmlns="http://www.w3.org/2000/svg" width="256" height="256" viewBox="0 0 256 256">
  <path d="M128,162.799c-19.129,0-34.638-15.509-34.638-34.638s15.509-34.638,34.638-34.638c19.13.001,34.637,15.511,34.637,34.639s-15.506,34.637-34.637,34.637M222.693,156.345l-15.035-12.812c-3.169-1.831-4.895-5.358-4.525-9,.251-2.471.383-4.985.383-7.523,0-1.928-.072-3.839-.213-5.726-.269-3.545,1.611-6.908,4.691-8.685l14.699-12.944c3.782-2.182,5.074-7.015,2.891-10.793l-14.896-25.802c-2.183-3.779-7.015-5.074-10.793-2.894l-17.755,6.119c-3.175,1.832-7.097,1.553-10.074-.592-3.796-2.733-7.857-5.123-12.135-7.124-3.273-1.532-5.411-4.753-5.411-8.367l-3.719-18.38c0-4.365-3.539-7.902-7.904-7.902h-29.79c-4.365,0-7.904,3.537-7.904,7.902l-3.719,18.38c0,3.614-2.14,6.835-5.411,8.367-4.277,2.001-8.339,4.391-12.135,7.124-2.977,2.144-6.899,2.424-10.074.592l-17.754-6.119c-3.779-2.182-8.611-.886-10.796,2.894l-14.895,25.801c-2.183,3.778-.889,8.611,2.891,10.793l14.699,12.944c3.076,1.778,4.959,5.141,4.691,8.685-.142,1.887-.216,3.799-.216,5.726,0,2.538.133,5.052.383,7.526.373,3.64-1.353,7.168-4.524,8.997l-15.034,12.812c-3.779,2.183-5.074,7.015-2.891,10.793l14.895,25.801c2.183,3.779,7.015,5.074,10.796,2.894l19.561-6.839c3.085-1.781,6.896-1.579,9.837.43,3.345,2.286,6.887,4.306,10.59,6.035,3.262,1.526,5.386,4.751,5.386,8.351l3.719,20.368c0,4.365,3.539,7.902,7.904,7.902h29.79c4.365.001,7.904-3.535,7.904-7.9l3.719-20.368c0-3.599,2.125-6.823,5.386-8.351,3.703-1.729,7.245-3.749,10.59-6.035,2.941-2.011,6.751-2.211,9.837-.43l19.564,6.839c3.778,2.182,8.609.886,10.793-2.894l14.895-25.801c2.183-3.778.891-8.609-2.891-10.793" fill="none" stroke="#42210b" stroke-width="32.002"/>
  <path d="M128,162.799c-19.129,0-34.638-15.509-34.638-34.638s15.509-34.638,34.638-34.638c19.13.001,34.637,15.511,34.637,34.639s-15.506,34.637-34.637,34.637M222.693,156.345l-15.035-12.812c-3.169-1.831-4.895-5.358-4.525-9,.251-2.471.383-4.985.383-7.523,0-1.928-.072-3.839-.213-5.726-.269-3.545,1.611-6.908,4.691-8.685l14.699-12.944c3.782-2.182,5.074-7.015,2.891-10.793l-14.896-25.802c-2.183-3.779-7.015-5.074-10.793-2.894l-17.755,6.119c-3.175,1.832-7.097,1.553-10.074-.592-3.796-2.733-7.857-5.123-12.135-7.124-3.273-1.532-5.411-4.753-5.411-8.367l-3.719-18.38c0-4.365-3.539-7.902-7.904-7.902h-29.79c-4.365,0-7.904,3.537-7.904,7.902l-3.719,18.38c0,3.614-2.14,6.835-5.411,8.367-4.277,2.001-8.339,4.391-12.135,7.124-2.977,2.144-6.899,2.424-10.074.592l-17.754-6.119c-3.779-2.182-8.611-.886-10.796,2.894l-14.895,25.801c-2.183,3.778-.889,8.611,2.891,10.793l14.699,12.944c3.076,1.778,4.959,5.141,4.691,8.685-.142,1.887-.216,3.799-.216,5.726,0,2.538.133,5.052.383,7.526.373,3.64-1.353,7.168-4.524,8.997l-15.034,12.812c-3.779,2.183-5.074,7.015-2.891,10.793l14.895,25.801c2.183,3.779,7.015,5.074,10.796,2.894l19.561-6.839c3.085-1.781,6.896-1.579,9.837.43,3.345,2.286,6.887,4.306,10.59,6.035,3.262,1.526,5.386,4.751,5.386,8.351l3.719,20.368c0,4.365,3.539,7.902,7.904,7.902h29.79c4.365.001,7.904-3.535,7.904-7.9l3.719-20.368c0-3.599,2.125-6.823,5.386-8.351,3.703-1.729,7.245-3.749,10.59-6.035,2.941-2.011,6.751-2.211,9.837-.43l19.564,6.839c3.778,2.182,8.609.886,10.793-2.894l14.895-25.801c2.183-3.778.891-8.609-2.891-10.793" fill="#fff3d6" stroke-width="0"/>
</svg>