<?xml version="1.0" encoding="UTF-8"?>
<svg id="f" data-name="Layer 5" xmlns="http://www.w3.org/2000/svg" width="256" height="256" viewBox="0 0 256 256">
  <path d="M230.725,118.053l-26.427-26.143c-5.115-5.115-13.64-5.115-18.754,0-5.115,5.114-3.979,19.038-3.979,19.038v3.695h-40.351v-40.067h3.695s13.64,1.137,19.038-3.979c5.115-5.115,5.115-13.64,0-18.754l-26.995-26.711c-2.558-2.558-5.967-3.979-9.378-3.979-3.695,0-6.82,1.421-9.378,3.979l-26.143,26.711c-5.115,5.115-5.115,13.64,0,18.754,5.115,5.115,19.038,3.979,19.038,3.979h3.695v40.351h-40.351s0-3.694,0-3.694c0,0,1.137-13.64-3.979-19.038-5.115-5.115-13.64-5.115-18.754,0l-26.711,26.995c-2.558,2.558-3.979,5.967-3.979,9.378,0,3.695,1.421,6.82,3.979,9.378l26.711,26.143c5.115,5.115,13.64,5.115,18.754,0,5.115-5.115,3.979-19.038,3.979-19.038v-3.695h40.351v40.067h-3.695s-13.64-1.137-19.038,3.979c-5.115,5.115-5.115,13.64,0,18.754l26.995,26.711c2.558,2.558,5.967,3.979,9.378,3.979,3.695,0,6.82-1.421,9.378-3.979l26.143-26.711c5.115-5.115,5.115-13.64,0-18.754-5.115-5.115-19.038-3.979-19.038-3.979h-3.695v-40.067h40.351v3.695s-1.137,13.64,3.979,19.038c5.115,5.115,13.64,5.115,18.754,0l26.711-26.995c2.558-2.558,3.979-5.967,3.979-9.378-.285-3.694-1.706-7.103-4.262-9.661v-.002Z" fill="none" stroke="#42210b" stroke-linejoin="round" stroke-width="33.043"/>
  <path d="M230.725,118.053l-26.427-26.143c-5.115-5.115-13.64-5.115-18.754,0-5.115,5.114-3.979,19.038-3.979,19.038v3.695h-40.351v-40.067h3.695s13.64,1.137,19.038-3.979c5.115-5.115,5.115-13.64,0-18.754l-26.995-26.711c-2.558-2.558-5.967-3.979-9.378-3.979-3.695,0-6.82,1.421-9.378,3.979l-26.143,26.711c-5.115,5.115-5.115,13.64,0,18.754,5.115,5.115,19.038,3.979,19.038,3.979h3.695v40.351h-40.351s0-3.694,0-3.694c0,0,1.137-13.64-3.979-19.038-5.115-5.115-13.64-5.115-18.754,0l-26.711,26.995c-2.558,2.558-3.979,5.967-3.979,9.378,0,3.695,1.421,6.82,3.979,9.378l26.711,26.143c5.115,5.115,13.64,5.115,18.754,0,5.115-5.115,3.979-19.038,3.979-19.038v-3.695h40.351v40.067h-3.695s-13.64-1.137-19.038,3.979c-5.115,5.115-5.115,13.64,0,18.754l26.995,26.711c2.558,2.558,5.967,3.979,9.378,3.979,3.695,0,6.82-1.421,9.378-3.979l26.143-26.711c5.115-5.115,5.115-13.64,0-18.754-5.115-5.115-19.038-3.979-19.038-3.979h-3.695v-40.067h40.351v3.695s-1.137,13.64,3.979,19.038c5.115,5.115,13.64,5.115,18.754,0l26.711-26.995c2.558-2.558,3.979-5.967,3.979-9.378-.285-3.694-1.706-7.103-4.262-9.661v-.002Z" fill="#fff3d6" stroke-width="0"/>
</svg>