<?xml version="1.0" encoding="UTF-8"?>
<svg id="f" data-name="Layer 5" xmlns="http://www.w3.org/2000/svg" width="256" height="256" viewBox="0 0 256 256">
  <path d="M144.621,240.03c-24.344-10.08-38.897-27.096-46.396-44.926l-18.867,18.867c-4.88,4.879-11.365,7.564-18.263,7.564s-13.383-2.686-18.261-7.562c-10.07-10.07-10.07-26.455-.002-36.525l18.948-18.947c-17.909-7.491-35.04-22.063-45.142-46.46l-5.844-14.115,13.83-6.49c9.339-4.383,21.749-6.604,36.887-6.604,4.499,0,9.138.211,13.692.597-1.045-5.396-1.641-9.991-1.93-12.541-3.216-28.438,1.869-43.328,6.701-50.812l6.99-10.826,12.067,4.522c15.842,5.938,30.944,23.441,41.186,40.825,1.284-1.338,2.65-2.669,4.105-3.986,16.072-14.545,37.856-22.233,62.997-22.233,1.099,0,2.216.015,3.344.043l15.192.391.391,15.192c.877,34.083-11.462,57.087-26.109,71.461,1.921,1.175,3.769,2.363,5.508,3.536,12.139,8.184,27.876,21.322,33.916,37.437l4.523,12.067-10.827,6.99c-7.708,4.976-18.737,7.499-32.777,7.499h-.005c-8.049,0-18.691-.994-29.074-3.082,1.353,17.038.193,36.566-6.172,50.133l-6.49,13.832-14.116-5.845Z" fill="#42210b" stroke-width="0"/>
  <path d="M224.578,164.05c-8.063-21.513-46.731-43.313-58.639-43.808,12.353-3.652,45.649-21.889,44.313-73.828-51.938-1.335-69.242,32.891-72.893,45.24-.495-11.905-22.43-52.838-43.943-60.902-10.682,16.545-2.675,65.799,6.122,75.656-10.206-4.567-48.663-9.618-68.116-.489,15.609,37.7,48.571,43.158,62.558,43.009l-39.832,39.832c-3.837,3.838-3.837,10.06,0,13.897,3.838,3.837,10.059,3.837,13.897,0l39.709-39.709c-.093,13.96,5.507,46.778,42.989,62.298,9.128-19.454,4.207-57.784-.361-67.99,9.856,8.8,57.654,17.473,74.196,6.793ZM108.927,147.841l-.103-.103c.036-.003.075-.006.111-.008-.003.036-.006.074-.008.111Z" fill="#fff3d6" stroke-width="0"/>
</svg>