<?xml version="1.0" encoding="UTF-8"?>
<svg id="g" data-name="Layer 7" xmlns="http://www.w3.org/2000/svg" width="256" height="256" viewBox="0 0 256 256">
  <g>
    <circle cx="128" cy="128" r="10.447" fill="none" stroke="#fff3d6" stroke-miterlimit="10" stroke-width="20"/>
    <circle cx="128" cy="128" r="47.754" fill="none" stroke="#fff3d6" stroke-miterlimit="10" stroke-width="20"/>
    <circle cx="128" cy="128" r="87.036" fill="none" stroke="#fff3d6" stroke-miterlimit="10" stroke-width="20"/>
  </g>
  <g>
    <path d="M128,164.447c-20.097,0-36.447-16.351-36.447-36.447s16.35-36.446,36.447-36.446,36.447,16.35,36.447,36.446-16.35,36.447-36.447,36.447Z" fill="#42210b" stroke-width="0"/>
    <path d="M128,201.754c-40.668,0-73.753-33.086-73.753-73.754S87.332,54.247,128,54.247s73.754,33.085,73.754,73.753-33.086,73.754-73.754,73.754ZM128,106.247c-11.995,0-21.753,9.759-21.753,21.753s9.758,21.754,21.753,21.754,21.754-9.759,21.754-21.754-9.759-21.753-21.754-21.753Z" fill="#42210b" stroke-width="0"/>
    <path d="M128,241.036c-62.328,0-113.036-50.708-113.036-113.036S65.672,14.964,128,14.964s113.036,50.708,113.036,113.036-50.708,113.036-113.036,113.036ZM128,66.964c-33.655,0-61.036,27.381-61.036,61.036s27.38,61.036,61.036,61.036,61.036-27.381,61.036-61.036-27.381-61.036-61.036-61.036Z" fill="#42210b" stroke-width="0"/>
  </g>
  <g>
    <path d="M128,107.554c-11.274,0-20.447,9.172-20.447,20.446s9.172,20.447,20.447,20.447,20.447-9.173,20.447-20.447-9.172-20.446-20.447-20.446ZM128,128.447c-.247,0-.447-.2-.447-.447s.2-.446.447-.446.447.2.447.446-.2.447-.447.447Z" fill="#fff3d6" stroke-width="0"/>
    <path d="M128,70.247c-31.845,0-57.753,25.908-57.753,57.753s25.908,57.754,57.753,57.754,57.754-25.908,57.754-57.754-25.908-57.753-57.754-57.753ZM128,165.754c-20.817,0-37.753-16.937-37.753-37.754s16.936-37.753,37.753-37.753,37.754,16.936,37.754,37.753-16.937,37.754-37.754,37.754Z" fill="#fff3d6" stroke-width="0"/>
    <path d="M128,30.964c-53.506,0-97.036,43.53-97.036,97.036s43.53,97.036,97.036,97.036,97.036-43.53,97.036-97.036S181.506,30.964,128,30.964ZM128,205.036c-42.478,0-77.036-34.559-77.036-77.036S85.522,50.964,128,50.964s77.036,34.559,77.036,77.036-34.558,77.036-77.036,77.036Z" fill="#fff3d6" stroke-width="0"/>
  </g>
</svg>