<?xml version="1.0" encoding="UTF-8"?>
<svg id="f" data-name="Layer 5" xmlns="http://www.w3.org/2000/svg" width="256" height="256" viewBox="0 0 256 256">
  <g>
    <path d="M82.121,36.241h-13.765c-3.652,0-7.147,1.451-9.735,4.028-2.579,2.588-4.028,6.085-4.028,9.737v155.989c0,3.652,1.449,7.148,4.028,9.737,2.588,2.577,6.083,4.028,9.735,4.028h119.287c3.652,0,7.147-1.451,9.735-4.028,2.579-2.588,4.028-6.085,4.028-9.737V50.006c0-3.652-1.449-7.148-4.028-9.737-2.588-2.577-6.083-4.028-9.735-4.028h-105.522Z" fill="none" stroke="#42210b" stroke-linejoin="round" stroke-width="32"/>
    <path d="M82.121,36.241h-13.765c-3.652,0-7.147,1.451-9.735,4.028-2.579,2.588-4.028,6.085-4.028,9.737v155.989c0,3.652,1.449,7.148,4.028,9.737,2.588,2.577,6.083,4.028,9.735,4.028h119.287c3.652,0,7.147-1.451,9.735-4.028,2.579-2.588,4.028-6.085,4.028-9.737V50.006c0-3.652-1.449-7.148-4.028-9.737-2.588-2.577-6.083-4.028-9.735-4.028h-105.522Z" fill="#fff3d6" stroke-width="0"/>
  </g>
  <path d="M143.468,26.488v95.15l-25.062-15.041c-2.271-1.365-5.121-1.365-7.392,0l-25.062,15.041V26.488" fill="none" stroke="#42210b" stroke-linejoin="round" stroke-width="16"/>
</svg>