<?xml version="1.0" encoding="UTF-8"?>
<svg id="e" data-name="Top Layer BG" xmlns="http://www.w3.org/2000/svg" width="256" height="256" viewBox="0 0 256 256">
  <path d="M224.409,44.609c-5.477-6.679-13.187-9.857-21.888-11.759H53.585c-13.269,2.549-22.921,9.152-27.055,20.741-3.824,10.713-1.592,21.026,4.836,30.635,7.317,10.941,17.857,19.028,29.886,25.631,3.014,1.323,5.043,4.016,5.333,7.079,2.997,21.178,25.253,39.598,46.907,44.925l1.903.476v23.766c-2.294,1.117-4.416,2.559-6.298,4.281l-16.802,15.413c-10.409,9.514-7.116,17.354,7.306,17.354h56.818c14.423,0,17.715-7.801,7.306-17.354l-16.802-15.413c-1.882-1.723-4.004-3.165-6.298-4.281v-23.519c3.189-.805,6.323-1.815,9.381-3.026,20.056-8.734,36.661-23.271,39.989-44.297.587-1.842,1.909-3.412,3.7-4.395,10.086-5.994,19.614-12.444,27.075-21.083,12.628-14.651,14.075-32.348,3.638-45.173h0ZM65.407,89.516c-8.391-6.07-15.832-12.102-18.601-21.14-3.1-10.237,3.906-19.237,18.601-16.155v37.295ZM208.742,70.145c-3.286,7.954-9.983,13.472-17.775,19.275v-37.238c15.274-3.292,22.177,7.306,17.775,17.963Z" fill="none" stroke="#42210b" stroke-linejoin="round" stroke-width="32"/>
  <path d="M224.409,44.609c-5.477-6.679-13.187-9.857-21.888-11.759H53.585c-13.269,2.549-22.921,9.152-27.055,20.741-3.824,10.713-1.592,21.026,4.836,30.635,7.317,10.941,17.857,19.028,29.886,25.631,3.014,1.323,5.043,4.016,5.333,7.079,2.997,21.178,25.253,39.598,46.907,44.925l1.903.476v23.766c-2.294,1.117-4.416,2.559-6.298,4.281l-16.802,15.413c-10.409,9.514-7.116,17.354,7.306,17.354h56.818c14.423,0,17.715-7.801,7.306-17.354l-16.802-15.413c-1.882-1.723-4.004-3.165-6.298-4.281v-23.519c3.189-.805,6.323-1.815,9.381-3.026,20.056-8.734,36.661-23.271,39.989-44.297.587-1.842,1.909-3.412,3.7-4.395,10.086-5.994,19.614-12.444,27.075-21.083,12.628-14.651,14.075-32.348,3.638-45.173h0ZM65.407,89.516c-8.391-6.07-15.832-12.102-18.601-21.14-3.1-10.237,3.906-19.237,18.601-16.155v37.295ZM208.742,70.145c-3.286,7.954-9.983,13.472-17.775,19.275v-37.238c15.274-3.292,22.177,7.306,17.775,17.963Z" fill="#fff3d6" stroke-width="0"/>
</svg>