<?xml version="1.0" encoding="UTF-8"?>
<svg id="g" data-name="Layer 7" xmlns="http://www.w3.org/2000/svg" width="256" height="256" viewBox="0 0 256 256">
  <g>
    <path d="M124.374,228.603c-7.243,0-14.452-.965-21.427-2.866-13.733-3.738-26.31-11.042-36.364-21.12l-4.98-4.989-1.246,1.245c-4.325,4.331-10.086,6.72-16.216,6.72-3.056,0-6.036-.599-8.858-1.78-8.623-3.617-14.145-11.985-14.077-21.322l.458-65.158c.088-12.454,10.292-22.669,22.746-22.771l65.367-.534c9.331,0,17.635,5.527,21.212,14.081,3.609,8.614,1.672,18.458-4.938,25.069l-1.273,1.273,9.172,9.185c10.128,10.14,22.933,16.877,37.028,19.482,8.382,1.538,15.183,7.565,17.729,15.727,2.542,8.197.355,17.021-5.696,23.057l-.771.77c-15.21,15.21-36.302,23.934-57.868,23.934Z" fill="#42210b" stroke-width="0"/>
    <path d="M146.169,159.973c-9.257,0-17.558-5.516-21.147-14.053-3.622-8.643-1.683-18.489,4.933-25.102l1.27-1.27-9.172-9.184c-10.13-10.14-22.935-16.876-37.029-19.479-8.396-1.55-15.192-7.578-17.731-15.732-2.538-8.156-.369-16.975,5.66-23.018l.788-.79c15.223-15.226,36.32-23.95,57.896-23.95,7.236,0,14.44.963,21.413,2.86,13.734,3.743,26.308,11.045,36.366,21.116l4.986,4.997,1.244-1.244c4.317-4.327,10.08-6.719,16.211-6.719,3.057,0,6.038.6,8.862,1.781,8.609,3.599,14.139,11.965,14.077,21.312l-.456,65.167c-.088,12.454-10.291,22.669-22.744,22.771l-65.302.534h-.124Z" fill="#42210b" stroke-width="0"/>
  </g>
  <g>
    <path d="M168.071,180.85c-17.292-3.196-33.008-11.463-45.442-23.911l-20.468-20.498,12.576-12.578c1.991-1.991,2.58-4.987,1.492-7.583-1.079-2.58-3.603-4.255-6.396-4.255h-.056l-65.235.533c-3.788.032-6.851,3.097-6.878,6.885l-.458,65.163c-.021,2.813,1.664,5.359,4.257,6.447,2.601,1.088,5.592.497,7.581-1.495l12.569-12.569,16.296,16.326c8.086,8.104,18.202,13.978,29.247,16.984,5.68,1.549,11.468,2.303,17.218,2.303,17.222,0,34.08-6.772,46.555-19.247l.785-.786c1.824-1.819,2.483-4.501,1.72-6.962-.768-2.46-2.831-4.294-5.364-4.759Z" fill="#fff3d6" stroke-width="0"/>
    <path d="M214.537,64.947c-2.601-1.088-5.589-.501-7.581,1.494l-12.569,12.567-16.294-16.328c-8.091-8.102-18.204-13.976-29.247-16.985-22.698-6.179-47.137.307-63.779,16.951l-.788.79c-1.817,1.822-2.476,4.501-1.711,6.959.765,2.458,2.831,4.289,5.361,4.756,17.296,3.194,33.01,11.461,45.444,23.906l20.47,20.498-12.578,12.578c-1.991,1.991-2.583,4.989-1.495,7.585,1.084,2.578,3.603,4.253,6.398,4.253h.059l65.235-.533c3.788-.031,6.849-3.097,6.876-6.885l.456-65.161c.018-2.815-1.662-5.362-4.258-6.447Z" fill="#fff3d6" stroke-width="0"/>
  </g>
</svg>