<?xml version="1.0" encoding="UTF-8"?>
<svg id="g" data-name="Layer 7" xmlns="http://www.w3.org/2000/svg" width="256" height="256" viewBox="0 0 256 256">
  <g>
    <circle cx="128" cy="128" r="10.447" fill="none" stroke="#fff3d6" stroke-miterlimit="10" stroke-width="20"/>
    <circle cx="128" cy="128" r="47.754" fill="#fff3d6" stroke="#fff3d6" stroke-miterlimit="10" stroke-width="20"/>
    <circle cx="128" cy="128" r="87.036" fill="none" stroke="#fff3d6" stroke-miterlimit="10" stroke-width="20"/>
  </g>
  <g>
    <circle cx="128" cy="128" r="73.753" transform="translate(-11.99 242.764) rotate(-84.345)" fill="#42210b" stroke-width="0"/>
    <path d="M128,241.036c-62.328,0-113.036-50.708-113.036-113.036S65.672,14.964,128,14.964s113.036,50.708,113.036,113.036-50.708,113.036-113.036,113.036ZM128,66.964c-33.655,0-61.036,27.381-61.036,61.036s27.381,61.036,61.036,61.036,61.036-27.381,61.036-61.036-27.38-61.036-61.036-61.036Z" fill="#42210b" stroke-width="0"/>
  </g>
  <g>
    <path d="M128,70.247c-31.846,0-57.754,25.908-57.754,57.753s25.908,57.754,57.754,57.754,57.753-25.908,57.753-57.754-25.908-57.753-57.753-57.753Z" fill="#fff3d6" stroke-width="0"/>
    <path d="M128,30.964c-53.506,0-97.036,43.53-97.036,97.036s43.53,97.036,97.036,97.036,97.036-43.53,97.036-97.036S181.506,30.964,128,30.964ZM128,205.036c-42.478,0-77.036-34.559-77.036-77.036s34.558-77.036,77.036-77.036,77.036,34.559,77.036,77.036-34.558,77.036-77.036,77.036Z" fill="#fff3d6" stroke-width="0"/>
  </g>
</svg>