<?xml version="1.0" encoding="UTF-8"?>
<svg id="f" data-name="Layer 5" xmlns="http://www.w3.org/2000/svg" width="256" height="256" viewBox="0 0 256 256">
  <path d="M127.223,244.169c-9.81,0-18.312-5.707-22.359-13.976-.699.058-1.405.087-2.115.087-6.683,0-12.957-2.594-17.667-7.303-3.324-3.325-5.514-7.36-6.57-11.622-1.708.375-3.477.57-5.287.57-2.163,0-4.674-.154-7.354-1.158-5.934-1.847-10.905-5.76-14.066-11.104-.421-.712-.805-1.438-1.149-2.179-.614.043-1.249.066-1.903.066-8.992,0-16.965-4.608-21.396-12.347-3.357-5.655-4.292-12.554-2.562-18.99.748-2.782,1.963-5.384,3.559-7.695-.359-.514-.7-1.043-1.022-1.588-3.399-5.741-4.321-12.47-2.595-18.943,1.077-4.041,3.106-7.631,5.803-10.549-2.792-2.989-4.854-6.671-5.854-10.782-1.646-6.438-.708-13.089,2.647-18.758.333-.563.688-1.111,1.06-1.643-5.432-7.838-6.119-18.37-.889-26.871,4.573-7.431,12.768-12.045,21.386-12.045.657,0,1.312.026,1.964.08,3.048-6.312,8.737-11.312,16.042-13.261,2.094-.56,4.249-.843,6.403-.843,1.846,0,3.656.208,5.405.604,1.116-3.993,3.242-7.761,6.375-10.895,4.714-4.713,10.988-7.307,17.669-7.307.71,0,1.416.029,2.115.087,4.048-8.268,12.55-13.975,22.359-13.975s18.311,5.707,22.359,13.975c.699-.058,1.405-.087,2.115-.087,6.68,0,12.954,2.593,17.666,7.302,3.046,3.048,5.14,6.69,6.282,10.558,2.25-.677,4.622-1.038,7.056-1.038,2.153,0,4.307.283,6.402.843,6.413,1.71,11.782,5.762,15.115,11.408.353.598.679,1.206.978,1.824.535-.035,1.072-.053,1.61-.053,9.009,0,17.205,4.729,21.498,12.37,3.326,5.607,4.244,12.477,2.514,18.911-.716,2.664-1.861,5.164-3.36,7.401.436.606.847,1.235,1.23,1.885,3.368,5.7,4.292,12.38,2.607,18.82-1.154,4.514-3.582,8.51-6.833,11.635,3.194,3.084,5.594,7.044,6.801,11.569,1.726,6.471.805,13.198-2.595,18.943-.355.6-.733,1.182-1.132,1.745,1.451,2.205,2.559,4.646,3.27,7.253,1.765,6.469.872,13.14-2.514,18.824-4.462,7.776-12.448,12.408-21.433,12.408-.511,0-1.011-.014-1.497-.041-2.906,6.274-8.439,11.274-15.676,13.39l-1.874.548-1.248.052c-.804.174-2.153.425-3.791.425-2.385,0-4.714-.348-6.929-.997-1.041,3.956-3.065,7.705-6.073,10.854-3.217,3.617-8.849,7.624-18.076,7.624-.688,0-1.377-.031-2.065-.093-4.027,8.324-12.558,14.078-22.408,14.078ZM152.507,170.778l-.025-.094-.163-.094.188.188ZM177.334,127.773l.606-.162-1.066-.285-.157.091.617.356Z" fill="#42210b" stroke-width="0"/>
  <path d="M214.9,149.95c1.193-2.017,1.515-4.386.905-6.672-1.045-3.918-4.533-6.654-8.482-6.654-.761,0-1.528.102-2.277.301l-29.976,8.017-30.351-17.523,29.891-17.26,30.631,8.193.181.09c.356.178,1.387.178,1.827.178,3.798,0,7.633-2.979,8.556-6.673,1.266-4.746-1.524-9.473-6.36-10.762l-13.125-3.561,15.031-8.678c1.935-1.042,3.398-2.958,4.016-5.257.625-2.324.302-4.766-.886-6.696l-.058-.1c-1.416-2.631-4.405-4.33-7.616-4.33-1.562,0-3.061.415-4.385,1.229l-14.497,8.369,3.406-12.56c1.266-4.746-1.524-9.473-6.352-10.76-.75-.2-1.517-.302-2.278-.302-3.949,0-7.438,2.736-8.483,6.655l-7.87,29.424-30.248,17.466v-33.084l21.952-21.952c3.504-3.505,3.504-9.206,0-12.711-1.689-1.688-3.946-2.619-6.355-2.619s-4.667.931-6.355,2.619l-9.241,9.241v-16.871c0-4.895-3.982-8.877-8.877-8.877s-8.877,3.982-8.877,8.877v16.871l-9.241-9.241c-1.689-1.688-3.946-2.619-6.355-2.619s-4.666.931-6.355,2.619c-3.504,3.505-3.504,9.206.011,12.722l21.941,22.289v32.84l-28.624-16.526-7.941-29.691c-1.044-3.918-4.533-6.654-8.482-6.654-.761,0-1.528.102-2.278.302-4.828,1.288-7.618,6.015-6.355,10.752l3.481,12.835-15.005-8.666c-1.276-.784-2.746-1.199-4.252-1.199-3.104,0-6.078,1.697-7.759,4.429-2.466,4.009-1.018,9.397,3.181,11.982l15.104,8.721-12.869,3.49c-2.318.618-4.252,2.069-5.447,4.088-1.194,2.017-1.515,4.386-.889,6.738,1.001,4.338,5.054,6.607,8.54,6.607.19,0,.639-.09.967-.155.476-.096.965-.193,1.453-.224l29.953-8.011,28.422,16.411-28.422,16.411-30.169-8.069c-.75-.2-1.517-.302-2.278-.302-3.949,0-7.438,2.736-8.482,6.654-.61,2.286-.289,4.655.905,6.672,1.194,2.019,3.129,3.47,5.485,4.099l12.579,3.626-14.904,8.604c-1.934,1.042-3.398,2.958-4.016,5.256-.625,2.325-.302,4.767.931,6.773,1.557,2.803,4.318,4.41,7.575,4.41,1.792,0,3.218-.389,4.239-1.154l.096-.071,15.186-8.768-3.603,13.286c-.61,2.286-.288,4.655.905,6.672,1.194,2.019,3.129,3.47,5.447,4.088l.197.053.183.091c.354.178,1.384.178,1.824.178,4.078,0,7.589-2.877,8.557-7.063l7.94-29.689,28.624-16.527v34.354l-21.952,21.952c-3.504,3.505-3.504,9.206,0,12.711,1.689,1.688,3.946,2.618,6.355,2.618s4.667-.93,6.355-2.618l9.241-9.241v16.87c0,4.896,3.982,8.878,8.877,8.878s8.877-3.982,8.877-8.878v-16.87l9.175,9.175c2.028,1.67,4.306,2.588,6.421,2.588,2.895,0,4.875-.759,6.233-2.388l.058-.069.064-.064c3.504-3.505,3.504-9.206,0-12.711l-21.952-21.952v-34.249l30.125,17.395,8.009,29.95c1.001,4.338,5.054,6.607,8.54,6.607.128,0,.391-.059.646-.116.451-.102,1.05-.235,1.779-.266,4.691-1.371,7.378-6.025,6.134-10.691l-3.534-13.028,14.726,8.503.096.071c1.021.766,2.447,1.154,4.239,1.154,3.257,0,6.018-1.607,7.62-4.486,1.194-1.941,1.511-4.263.891-6.535-.622-2.278-2.084-4.223-4.072-5.446l-14.522-8.386,12.676-3.438c2.318-.618,4.252-2.069,5.447-4.088Z" fill="#fff3d6" stroke-width="0"/>
</svg>