<?xml version="1.0" encoding="UTF-8"?>
<svg id="b" data-name="Layer 2" xmlns="http://www.w3.org/2000/svg" width="251.491" height="246.076" viewBox="0 0 251.491 246.076">
  <g id="c" data-name="Layer 7">
    <path d="M130.412,173.733l-31.543,30.773c-7.444,7.176-17.485,11.079-27.816,10.843-10.346-.252-20.133-4.645-27.231-12.168-7.539-7.129-12.004-16.915-12.383-27.277-.205-10.015,3.819-19.659,11.059-26.567l31.543-30.774c2.949-2.87,4.59-6.773,4.59-10.874s-1.64-8.034-4.59-10.889c-6.198-6.009-16.073-6.009-22.271,0l-31.543,30.773C6.885,140.349-.437,158.161.02,176.645c.584,18.295,8.33,35.636,21.563,48.3,13.579,13.453,31.896,21.036,51.011,21.131,18.169.032,35.598-7.078,48.547-19.806l31.543-30.773c2.949-2.87,4.621-6.772,4.621-10.873s-1.672-8.036-4.621-10.89c-6.198-6.04-16.057-6.04-22.271,0ZM67.48,180.048c6.198,6.009,16.058,6.009,22.24,0l94.383-92.318c2.949-2.855,4.621-6.773,4.621-10.874s-1.672-8.034-4.621-10.889c-6.198-6.009-16.043-6.009-22.241,0l-94.382,92.334c-2.965,2.839-4.651,6.772-4.651,10.889s1.686,8.066,4.651,10.92v-.062ZM229.909,21.132c-27.222-27.648-71.611-28.247-99.558-1.325l-31.543,30.788c-2.949,2.839-4.59,6.773-4.59,10.874s1.64,8.019,4.59,10.874c6.198,5.993,16.042,5.993,22.24,0l31.542-30.773c7.444-7.192,17.47-11.095,27.816-10.843,10.346.252,20.15,4.629,27.231,12.168,7.539,7.113,11.988,16.93,12.382,27.292.205,9.999-3.788,19.629-11.027,26.553l-31.543,30.773c-2.949,2.855-4.619,6.789-4.619,10.889s1.67,8.018,4.619,10.873c6.198,6.009,16.043,6.009,22.241,0l31.543-30.772c13.327-12.791,20.695-30.586,20.238-49.055-.584-18.279-8.346-35.621-21.563-48.254v-.062Z" fill-rule="evenodd" stroke-width="0"/>
  </g>
</svg>