<?xml version="1.0" encoding="UTF-8"?>
<svg id="b" data-name="Layer 2" xmlns="http://www.w3.org/2000/svg" width="236.613" height="236.614" viewBox="0 0 236.613 236.614">
  <g id="c" data-name="Layer 7">
    <g>
      <path d="M103.711,173.731c-7.196,0-13.997-3.454-18.661-9.477l-19.297-24.921c-4.862-6.278-3.713-15.31,2.565-20.171,6.278-4.861,15.31-3.712,20.171,2.565l15.221,19.656,56.471-72.927c4.862-6.279,13.893-7.428,20.171-2.565,6.279,4.861,7.427,13.893,2.565,20.171l-60.547,78.191c-4.663,6.022-11.464,9.477-18.66,9.477Z" stroke-width="0"/>
      <path d="M118.306,236.614c-14.166,0-28.333-.613-42.4-1.838l-.249-.024C40.066,231.028,5.582,196.542,1.862,160.954l-.024-.247c-2.451-28.135-2.451-56.665,0-84.8l.024-.25C5.591,40.069,40.075,5.585,75.658,1.863l.248-.024c28.135-2.451,56.666-2.451,84.801,0l.248.024c35.587,3.724,70.071,38.208,73.796,73.795l.024.249c2.451,28.135,2.451,56.665,0,84.8l-.024.248c-3.723,35.589-38.207,70.073-73.796,73.797l-.249.024c-14.068,1.225-28.234,1.838-42.4,1.838ZM78.538,206.139c26.389,2.291,53.147,2.291,79.537,0,21.947-2.369,45.695-26.118,48.064-48.064,2.291-26.39,2.291-53.146,0-79.535-2.37-21.947-26.117-45.695-48.063-48.064-26.391-2.293-53.15-2.293-79.541,0-21.942,2.371-45.689,26.117-48.061,48.063-2.291,26.389-2.291,53.147,0,79.536,2.367,21.946,26.115,45.695,48.063,48.064Z" stroke-width="0"/>
    </g>
  </g>
</svg>