<?xml version="1.0" encoding="UTF-8"?>
<svg id="b" data-name="Layer 2" xmlns="http://www.w3.org/2000/svg" width="256" height="256" viewBox="0 0 256 256">
  <g id="c" data-name="Layer 7">
    <g>
      <path d="M127.996,99.857c10.313,0,18.715-8.402,18.715-18.715s-8.402-18.715-18.715-18.715-18.705,8.402-18.705,18.715,8.393,18.715,18.705,18.715Z" stroke-width="0"/>
      <path d="M128,0C57.307,0,0,57.307,0,128s57.307,128,128,128,128-57.308,128-128S198.692,0,128,0ZM189.77,205.073h-123.541c-7.481,0-13.031-6.941-11.384-14.239l17.348-76.891c1.201-5.322,5.928-9.102,11.384-9.102h9.471c-4.598-6.762-7.29-14.921-7.29-23.699,0-23.299,18.949-42.248,42.239-42.248s42.247,18.949,42.247,42.248c0,8.778-2.692,16.937-7.291,23.699h9.469c5.456,0,10.184,3.78,11.384,9.102l17.348,76.891c1.646,7.298-3.903,14.239-11.384,14.239Z" stroke-width="0"/>
    </g>
  </g>
</svg>