<?xml version="1.0" encoding="UTF-8"?>
<svg id="b" data-name="Layer 2" xmlns="http://www.w3.org/2000/svg" width="256" height="256" viewBox="0 0 256 256">
  <g id="c" data-name="Layer 5">
    <path d="M128,0C57.307,0,0,57.307,0,128s57.307,128,128,128,128-57.308,128-128S198.693,0,128,0ZM215.089,136.167c-.142,1.991-.308,3.926-.499,5.807-.724,7.135-2.184,13.757-4.368,19.865-3.06,8.595-7.206,16.198-12.449,22.82-5.232,6.622-11.387,12.158-18.441,16.596-7.066,4.438-14.82,7.825-23.264,10.149-8.444,2.336-17.32,3.504-26.639,3.504-12.8,0-24.49-2.114-35.036-6.342-10.558-4.216-19.62-10.149-27.188-17.787-7.568-7.649-13.466-16.817-17.682-27.515-4.228-10.698-6.342-22.528-6.342-35.48,0-12.812,2.079-24.572,6.225-35.27s10.044-19.831,17.693-27.398c7.638-7.568,16.841-13.466,27.62-17.693,10.768-4.216,22.774-6.33,36.029-6.33,17.168,0,32.233,3.714,45.197,11.142,7.226,4.137,13.616,9.547,19.167,16.227,7.08,8.519,3.608,21.587-6.628,25.823l-8.861,3.667c-6.97,2.885-15.1.727-19.539-5.373-2.582-3.548-5.484-6.373-8.712-8.473-6.038-3.924-12.917-5.886-20.625-5.886-6.412,0-12.228,1.191-17.471,3.597-5.244,2.406-9.717,5.828-13.431,10.266s-6.622,9.787-8.736,16.046c-2.114,6.26-3.165,13.244-3.165,20.963,0,6.984.911,13.466,2.733,19.434,1.822,5.968,4.543,11.13,8.187,15.498,3.632,4.368,8.152,7.755,13.536,10.161,5.384,2.394,11.644,3.597,18.779,3.597,4.216,0,8.304-.467,12.228-1.413,3.936-.946,7.463-2.476,10.593-4.59,3.13-2.102,5.711-4.835,7.755-8.187,2.032-3.352,3.41-7.428,4.146-12.228h-18.557c-9.165,0-16.595-7.43-16.595-16.595h0c0-9.166,7.43-16.595,16.595-16.595h51.186c9.7,0,17.248,8.319,16.56,17.995Z" fill="#121212" stroke-width="0"/>
  </g>
</svg>