<svg width="32" height="32" viewBox="0 0 32 32" fill="none" xmlns="http://www.w3.org/2000/svg">
<rect width="32" height="32" fill="white"/>
<path d="M16.0909 12.343C14.0896 12.343 12.3384 13.9691 12.3384 16.0956C12.3384 18.0969 13.9645 19.8481 16.0909 19.8481C18.2173 19.8481 19.8434 18.222 19.8434 16.0956C19.8434 13.9691 18.2173 12.343 16.0909 12.343Z" fill="#42210B"/>
<path d="M30.1004 12.9684L27.3486 12.2179C27.2235 11.7176 26.9733 11.2173 26.7231 10.5918L28.2241 8.09015C28.4743 7.58981 28.4743 6.96439 27.974 6.58914L25.3472 3.96236C24.9719 3.58711 24.3465 3.46203 23.8462 3.83728L21.3445 5.33829C20.9692 5.08812 20.3438 4.83796 19.8435 4.71287L19.093 1.96101C18.9679 1.46067 18.4676 1.08542 17.8421 1.08542H14.2147C13.5893 1.08542 13.0889 1.46067 12.9638 1.96101L12.3384 4.71287C11.8381 4.83796 11.3377 5.08812 10.7123 5.33829L8.21063 3.83728C7.83537 3.58711 7.20995 3.7122 6.8347 4.08745L4.20792 6.71422C3.83267 7.08948 3.70758 7.7149 3.95775 8.21524L5.45877 10.7169C5.2086 11.0922 4.95843 11.7176 4.83335 12.2179L2.08149 12.9684C1.45606 13.0935 1.08081 13.5939 1.08081 14.0942V17.7217C1.08081 18.3471 1.45606 18.8474 1.9564 18.9725L4.83335 19.723C4.95843 20.2233 5.2086 20.8488 5.45877 21.3491L3.95775 23.8508C3.70758 24.3511 3.70759 24.9766 4.08284 25.3518L6.70961 27.9786C7.08487 28.3538 7.71029 28.4789 8.21063 28.2288L10.7123 26.7277C11.3377 26.8528 11.8381 27.103 12.3384 27.2281L13.0889 29.9799C13.214 30.4803 13.7143 30.8555 14.3398 30.8555H17.9672C18.4676 30.8555 18.9679 30.4803 19.2181 29.9799L19.8435 27.2281C20.3438 27.103 20.8442 26.8528 21.3445 26.6027L23.8462 28.1037C24.3465 28.3538 24.9719 28.3538 25.3472 27.8535L27.974 25.2267C28.3492 24.8515 28.4743 24.2261 28.2241 23.7257L26.7231 21.224C26.9733 20.7237 27.2235 20.2233 27.3486 19.5979L30.1004 18.8474C30.6008 18.7223 30.976 18.222 30.976 17.5966V13.9691C31.1011 13.5939 30.7258 13.0935 30.1004 12.9684ZM16.091 22.2247C12.5886 22.2247 9.83673 19.4728 9.83673 15.9705C9.83673 12.4681 12.5886 9.71625 16.091 9.71625C19.5933 9.71625 22.3452 12.4681 22.3452 15.9705C22.3452 19.4728 19.5933 22.2247 16.091 22.2247Z" fill="#42210B"/>
</svg>
