<svg width="32" height="32" viewBox="0 0 32 32" fill="none" xmlns="http://www.w3.org/2000/svg">
<rect width="32" height="32" fill="white"/>
<path fill-rule="evenodd" clip-rule="evenodd" d="M16.5196 21.7684L13.0077 25.27C12.1789 26.0866 11.061 26.5307 9.91082 26.5038C8.75892 26.4751 7.66925 25.9753 6.87908 25.1193C6.03974 24.3081 5.54255 23.1946 5.50041 22.0156C5.47758 20.876 5.92564 19.7786 6.73161 18.9926L10.2435 15.491C10.5718 15.1644 10.7545 14.7203 10.7545 14.2537C10.7545 13.7871 10.5718 13.3395 10.2435 13.0147C9.5534 12.3309 8.45399 12.3309 7.76391 13.0147L4.25204 16.5162C2.76652 17.9698 1.95133 19.9965 2.00225 22.0997C2.06722 24.1814 2.92972 26.1546 4.40295 27.5956C5.91481 29.1264 7.95409 29.9892 10.0823 30C12.1051 30.0036 14.0457 29.1946 15.4873 27.7464L18.9991 24.2448C19.3275 23.9182 19.5136 23.4742 19.5136 23.0076C19.5136 22.541 19.3275 22.0933 18.9991 21.7684C18.3091 21.0811 17.2114 21.0811 16.5196 21.7684ZM9.51298 22.487C10.2031 23.1707 11.3008 23.1707 11.9891 22.487L22.4973 11.9824C22.8257 11.6576 23.0118 11.2117 23.0118 10.7452C23.0118 10.2768 22.8257 9.83094 22.4973 9.50613C21.8072 8.82239 20.7112 8.82239 20.0211 9.50613L9.51298 20.0124C9.18286 20.3355 8.99512 20.783 8.99512 21.2514C8.99512 21.7198 9.18286 22.1692 9.51298 22.494V22.487ZM27.5971 4.40455C24.5663 1.25865 19.6242 1.19049 16.5127 4.25383L13.0008 7.75711C12.6725 8.08014 12.4898 8.52779 12.4898 8.99438C12.4898 9.46097 12.6725 9.90685 13.0008 10.2317C13.6909 10.9136 14.7869 10.9136 15.477 10.2317L18.9888 6.73013C19.8176 5.9118 20.9338 5.46764 22.0857 5.49636C23.2376 5.52507 24.3291 6.02305 25.1175 6.88086C25.9568 7.69021 26.4522 8.80728 26.4961 9.98632C26.5189 11.1241 26.0743 12.2198 25.2683 13.0077L21.7565 16.5092C21.4281 16.834 21.2422 17.2816 21.2422 17.7482C21.2422 18.2148 21.4281 18.6606 21.7565 18.9854C22.4465 19.6691 23.5426 19.6691 24.2327 18.9854L27.7446 15.484C29.2283 14.0285 30.0487 12.0036 29.9978 9.90219C29.9328 7.82227 29.0685 5.84901 27.5971 4.41155V4.40455Z" fill="#42210B"/>
</svg>
