<?xml version="1.0" encoding="UTF-8"?>
<svg id="b" data-name="Layer 2" xmlns="http://www.w3.org/2000/svg" width="236.63" height="236.63" viewBox="0 0 236.63 236.63">
  <g id="c" data-name="Top Layer BG">
    <g>
      <path d="M171.559,77.269l-60.547,78.191c-4.027,5.201-10.556,5.201-14.583,0l-19.297-24.921" fill="none" stroke="#121212" stroke-linecap="round" stroke-linejoin="round" stroke-width="28.756"/>
      <path d="M159.467,220.46c-27.436,2.39-54.87,2.39-82.305,0-28.762-3.01-57.985-32.229-60.992-60.992-2.39-27.435-2.39-54.869,0-82.304,3.014-28.763,32.228-57.982,60.992-60.992,27.435-2.39,54.869-2.39,82.305,0,28.76,3.01,57.981,32.228,60.992,60.992,2.39,27.435,2.39,54.87,0,82.304-3.009,28.763-32.23,57.983-60.992,60.992Z" fill="none" stroke="#121212" stroke-miterlimit="10" stroke-width="28.756"/>
    </g>
  </g>
</svg>