<svg width="96" height="29" viewBox="0 0 96 29" fill="none" xmlns="http://www.w3.org/2000/svg">
<path fill-rule="evenodd" clip-rule="evenodd" d="M14.395 0C10.765 0 7.269 1.368 4.601 3.829C1.934 6.291 0.291 9.667 0 13.285L7.741 16.488C8.418 16.023 9.221 15.775 10.043 15.776H10.272L13.713 10.787V10.715C13.717 9.638 14.04 8.586 14.641 7.693C15.242 6.799 16.095 6.104 17.091 5.695C18.087 5.286 19.182 5.18 20.238 5.393C21.294 5.605 22.263 6.126 23.023 6.889C23.783 7.652 24.3 8.623 24.509 9.679C24.718 10.735 24.609 11.83 24.196 12.825C23.783 13.82 23.085 14.669 22.189 15.267C21.293 15.865 20.241 16.184 19.164 16.184H19.04L14.143 19.687V19.88C14.145 20.896 13.77 21.876 13.089 22.63C12.408 23.384 11.471 23.857 10.46 23.958C9.449 24.059 8.437 23.779 7.621 23.175C6.805 22.57 6.243 21.683 6.045 20.687L0.511 18.402C1.244 20.987 2.683 23.317 4.667 25.129C6.651 26.941 9.101 28.164 11.743 28.66C14.384 29.156 17.111 28.905 19.617 27.936C22.123 26.967 24.31 25.318 25.93 23.174C27.55 21.03 28.541 18.477 28.79 15.802C29.039 13.126 28.536 10.434 27.339 8.029C26.142 5.623 24.297 3.599 22.012 2.185C19.726 0.769 17.092 0.019 14.405 0.02L14.395 0ZM9.054 21.917L7.278 21.182C7.536 21.718 7.944 22.168 8.452 22.477C8.961 22.785 9.548 22.939 10.143 22.919C10.738 22.899 11.314 22.707 11.801 22.365C12.288 22.023 12.665 21.548 12.887 20.995C13.108 20.443 13.164 19.838 13.048 19.254C12.932 18.67 12.648 18.133 12.231 17.708C11.815 17.283 11.283 16.988 10.702 16.86C10.121 16.732 9.515 16.775 8.958 16.985L10.79 17.742C11.343 17.972 11.782 18.413 12.011 18.967C12.239 19.521 12.238 20.143 12.008 20.697C11.778 21.25 11.337 21.689 10.783 21.918C10.229 22.146 9.607 22.145 9.053 21.915L9.054 21.917ZM22.195 8.704C22.594 9.302 22.806 10.004 22.806 10.722C22.804 11.683 22.422 12.605 21.742 13.285C21.062 13.965 20.141 14.348 19.179 14.349C18.461 14.349 17.758 14.137 17.161 13.739C16.563 13.34 16.098 12.773 15.822 12.11C15.547 11.446 15.475 10.716 15.615 10.012C15.755 9.307 16.101 8.66 16.609 8.152C17.117 7.644 17.764 7.298 18.469 7.158C19.174 7.018 19.904 7.09 20.567 7.365C21.231 7.64 21.797 8.106 22.195 8.704ZM16.915 9.207C16.615 9.655 16.456 10.182 16.456 10.722L16.44 10.715C16.44 11.075 16.51 11.431 16.647 11.764C16.785 12.097 16.987 12.399 17.242 12.653C17.497 12.907 17.8 13.108 18.133 13.245C18.466 13.381 18.823 13.451 19.183 13.448C19.722 13.448 20.249 13.288 20.698 12.989C21.146 12.689 21.496 12.264 21.702 11.766C21.908 11.268 21.962 10.72 21.857 10.191C21.752 9.662 21.492 9.176 21.111 8.795C20.73 8.414 20.244 8.154 19.715 8.049C19.186 7.944 18.638 7.998 18.14 8.204C17.642 8.41 17.216 8.76 16.917 9.208L16.915 9.207ZM44.262 9.883L43.283 11.584C42.503 11.057 41.586 10.768 40.645 10.751C39.636 10.751 39.012 11.166 39.012 11.913C39.012 12.681 39.805 12.951 41.049 13.375C41.274 13.452 41.514 13.533 41.768 13.624C43.537 14.251 44.553 14.985 44.553 16.608C44.553 18.825 42.809 20.069 40.308 20.069C38.967 20.074 37.648 19.728 36.482 19.067L37.187 17.18C38.114 17.67 39.143 17.935 40.191 17.954C41.513 17.954 42.15 17.468 42.15 16.746C42.15 15.981 41.329 15.711 39.977 15.268H39.975C39.868 15.233 39.759 15.197 39.646 15.16C37.88 14.572 36.659 13.799 36.659 12.003C36.659 9.982 38.291 8.82 40.609 8.82C41.909 8.783 43.186 9.156 44.263 9.884L44.262 9.883ZM51.827 19.887V10.961H55.128V9.002H46.241V10.961H49.542V19.887H51.827ZM59.928 10.96V13.412H64.29V15.371H59.928V17.924H64.989V19.883H57.65V9.001H64.989V10.96H59.928ZM69.353 19.883L70.071 17.771L74.319 17.768L75.057 19.88H77.525L73.33 9.001H71.045L66.964 19.883H69.353ZM70.692 15.956L72.177 11.601L73.695 15.956H70.692ZM89.227 13.21L86.249 19.567H84.963L82.025 13.266V19.884H79.841V9.002H82.018L85.675 16.854L89.211 9.002H91.408V19.881H89.227V13.211V13.21ZM95.556 11.213C95.722 10.965 95.811 10.674 95.812 10.376C95.818 10.176 95.784 9.977 95.711 9.792C95.638 9.606 95.527 9.437 95.386 9.296C95.245 9.154 95.077 9.043 94.891 8.969C94.705 8.895 94.507 8.859 94.307 8.865C94.009 8.865 93.717 8.952 93.468 9.117C93.219 9.282 93.026 9.517 92.911 9.793C92.796 10.068 92.766 10.372 92.823 10.664C92.881 10.957 93.024 11.226 93.234 11.437C93.444 11.648 93.713 11.793 94.005 11.851C94.298 11.91 94.601 11.881 94.877 11.767C95.153 11.653 95.39 11.461 95.556 11.213ZM93.271 11.069C93.132 10.865 93.056 10.623 93.053 10.376C93.046 10.209 93.073 10.042 93.133 9.886C93.193 9.73 93.285 9.588 93.403 9.469C93.521 9.35 93.662 9.257 93.817 9.195C93.972 9.133 94.139 9.104 94.306 9.11C94.553 9.11 94.795 9.183 95.001 9.32C95.207 9.457 95.368 9.652 95.463 9.881C95.558 10.109 95.584 10.361 95.537 10.604C95.489 10.847 95.372 11.07 95.197 11.246C95.023 11.422 94.801 11.542 94.559 11.592C94.317 11.642 94.065 11.619 93.836 11.526C93.607 11.433 93.41 11.273 93.271 11.069ZM94.849 10.033C94.849 9.811 94.718 9.602 94.33 9.602L93.798 9.599V11.098H94.036V10.517H94.34L94.634 11.098H94.931L94.582 10.445C94.662 10.41 94.73 10.352 94.777 10.279C94.825 10.206 94.85 10.121 94.849 10.033ZM94.307 10.301H94.049L94.042 9.831H94.306C94.508 9.831 94.58 9.919 94.58 10.056C94.58 10.091 94.572 10.125 94.558 10.156C94.544 10.188 94.523 10.216 94.497 10.239C94.471 10.262 94.441 10.279 94.408 10.29C94.375 10.301 94.341 10.304 94.307 10.301Z" fill="#231F20"/>
</svg>
